<?xml version="1.0" standalone="no"?><!DOCTYPE svg PUBLIC "-//W3C//DTD SVG 1.1//EN" "http://www.w3.org/Graphics/SVG/1.1/DTD/svg11.dtd"><svg t="1737770911654" class="icon" viewBox="0 0 1024 1024" version="1.1" xmlns="http://www.w3.org/2000/svg" p-id="4262" xmlns:xlink="http://www.w3.org/1999/xlink" width="200" height="200"><path d="M348.16 1020.928c-183.296 0-332.8-149.504-332.8-332.8v-256c0-183.296 149.504-332.8 332.8-332.8s332.8 149.504 332.8 332.8v256c0 183.296-149.504 332.8-332.8 332.8z m0-870.4c-155.136 0-281.6 126.464-281.6 281.6v256c0 155.136 126.464 281.6 281.6 281.6s281.6-126.464 281.6-281.6v-256c0-155.136-126.464-281.6-281.6-281.6z" fill="#D5641E" p-id="4263"></path><path d="M655.36 432.128c0-169.472-137.728-307.2-307.2-307.2S40.96 262.656 40.96 432.128h614.4z" fill="#DCDDDD" p-id="4264"></path><path d="M680.96 457.728H15.36v-25.6c0-183.296 149.504-332.8 332.8-332.8s332.8 149.504 332.8 332.8v25.6z m-613.376-51.2h560.64c-12.8-143.36-133.632-256-280.576-256s-266.752 112.64-280.064 256z" fill="#D5641E" p-id="4265"></path><path d="M348.16 457.728c-14.336 0-25.6-11.264-25.6-25.6V118.784l3.072-5.632c2.56-5.12 70.144-130.048 276.48-108.032 92.16 9.728 125.44 47.616 154.624 80.896 26.112 29.696 47.104 53.248 115.2 56.32 66.56 2.56 100.352-61.44 100.352-61.952 6.656-12.8 22.016-17.408 34.304-11.264 12.8 6.656 17.408 22.016 11.264 34.304-2.048 3.584-47.104 90.112-141.824 90.112h-6.656c-90.112-3.584-122.368-40.96-151.552-73.728-26.624-30.208-49.664-56.32-121.856-64-149.504-15.872-208.896 56.32-222.208 76.288v300.032c0 14.336-11.264 25.6-25.6 25.6z" fill="#D5641E" p-id="4266"></path><path d="M348.16 791.552m-76.8 0a76.8 76.8 0 1 0 153.6 0 76.8 76.8 0 1 0-153.6 0Z" fill="#DCDDDD" p-id="4267"></path><path d="M348.16 893.952c-56.32 0-102.4-46.08-102.4-102.4s46.08-102.4 102.4-102.4 102.4 46.08 102.4 102.4-46.08 102.4-102.4 102.4z m0-153.6c-28.16 0-51.2 23.04-51.2 51.2s23.04 51.2 51.2 51.2 51.2-23.04 51.2-51.2-23.04-51.2-51.2-51.2z" fill="#D5641E" p-id="4268"></path></svg>